<?xml version="1.0" encoding="utf-8"?>
<!-- Generator: Adobe Illustrator 24.0.0, SVG Export Plug-In . SVG Version: 6.00 Build 0)  -->
<svg version="1.1" id="Layer_1" xmlns="http://www.w3.org/2000/svg" xmlns:xlink="http://www.w3.org/1999/xlink" x="0px" y="0px"
	 viewBox="0 0 250 250" style="enable-background:new 0 0 250 250;" xml:space="preserve">
<style type="text/css">
	.st0{fill:#109D58;}
	.st1{fill:#4285F3;}
	.st2{fill:#E94336;}
	.st3{fill:#FABB05;}
	.st4{fill:#5F6368;}
	.st5{font-family:'GoogleSans-Regular';}
	.st6{font-size:26.3201px;}
</style>
<g>
	<g>
		<path class="st0" d="M77.51,121.39c-0.98-0.65-2.03-1.17-3.05-1.76c-1.72-0.98-3.45-1.94-5.17-2.91c-1.91-1.09-2.69-3.1-1.95-5
			c0.87-2.24,3.45-3.3,5.64-2.26c1.11,0.53,2.17,1.18,3.24,1.78c3.85,2.17,7.69,4.34,11.54,6.5c0.95,0.53,1.66,1.24,2.03,2.27
			c0.67,1.91-0.19,4.03-2.01,4.96c-0.15,0.07-0.29,0.14-0.44,0.21c-0.09,0-0.18,0-0.23,0.09c0,0,0.01,0,0.01,0
			c-0.09,0.01-0.18,0.01-0.26,0.03c-1.09,0.25-2.12,0.11-3.09-0.44c-0.88-0.5-1.75-1-2.64-1.48
			C79.93,122.72,78.76,121.98,77.51,121.39z"/>
		<path class="st1" d="M50.47,121.36c1.52,0.87,3.04,1.74,4.57,2.6c1.22,0.69,2.44,1.37,3.65,2.06c1.86,1.05,2.6,3,1.91,4.98
			c-0.63,1.8-2.57,2.89-4.58,2.59c-0.54-0.08-1.03-0.28-1.5-0.54c-4.82-2.71-9.64-5.41-14.46-8.14c-1.48-0.83-2.23-2.13-2.13-3.83
			c0.1-1.63,1.01-2.75,2.46-3.45c0.13-0.07,0.25-0.14,0.38-0.22c0.16-0.01,0.33-0.01,0.49-0.03c1.04-0.17,2.03-0.05,2.96,0.5
			c0.7,0.41,1.42,0.8,2.13,1.2C47.72,119.84,49.09,120.6,50.47,121.36z"/>
		<path class="st2" d="M50.47,121.36c-1.37-0.76-2.75-1.52-4.12-2.28c-0.71-0.4-1.43-0.79-2.13-1.2c-0.93-0.54-1.92-0.66-2.96-0.5
			c-0.16,0.03-0.32,0.02-0.49,0.03c4.55-2.57,9.1-5.14,13.65-7.71c1.98-1.11,4.23-0.73,5.55,0.92c1.53,1.9,1.07,4.65-1.03,5.91
			c-1.81,1.08-3.67,2.08-5.5,3.12C52.45,120.22,51.46,120.8,50.47,121.36z"/>
		<path class="st3" d="M77.51,121.39c1.24,0.6,2.41,1.33,3.62,1.99c0.88,0.48,1.76,0.98,2.64,1.48c0.97,0.55,2,0.69,3.09,0.44
			c0.09-0.02,0.18-0.02,0.26-0.03c-0.05,0.14-0.2,0.17-0.31,0.23c-4.43,2.5-8.86,4.98-13.28,7.48c-1.55,0.88-3.09,0.93-4.59-0.04
			c-2.53-1.63-2.48-5.27,0.12-6.79C71.85,124.53,74.69,122.98,77.51,121.39z"/>
		<path class="st3" d="M87.12,125.28c0.05-0.1,0.14-0.09,0.23-0.09C87.28,125.25,87.21,125.3,87.12,125.28z"/>
	</g>
	<text transform="matrix(1 0 0 1 93.7893 129.8191)" class="st4 st5 st6">GDG Dang</text>
</g>
</svg>
